<?xml version="1.0" encoding="UTF-8"?>
<svg xmlns="http://www.w3.org/2000/svg" xmlns:xlink="http://www.w3.org/1999/xlink" viewBox="0 0 512 512" width="512px" height="512px">
<g id="surface41282633">
<path style=" stroke:none;fill-rule:nonzero;fill:rgb(44.705883%,70.19608%,68.235296%);fill-opacity:1;" d="M 256 32 C 247.9375 32 240.0625 34.9375 234 41 L 189 86.5 C 186.5625 87.8125 184.5 89.6875 183 92 L 41 234 C 28.875 246.0625 28.875 265.875 41 278 L 234 471 C 246.125 483.0625 265.875 483.0625 278 471 L 471 278 C 483.125 265.9375 483.125 246.125 471 234 L 278 41 C 271.9375 34.9375 264.0625 32 256 32 Z M 256 64.5 L 447.5 256 L 256 447.5 L 64.5 256 L 197 123.5 L 225 151.5 C 224.25 154.1875 224 157.0625 224 160 C 224 171.8125 230.4375 181.9375 240 187.5 L 240 324.5 C 230.4375 330.0625 224 340.1875 224 352 C 224 369.6875 238.3125 384 256 384 C 273.6875 384 288 369.6875 288 352 C 288 340.1875 281.5625 330.0625 272 324.5 L 272 199 L 321 248 C 320.3125 250.5625 320 253.25 320 256 C 320 273.6875 334.3125 288 352 288 C 369.6875 288 384 273.6875 384 256 C 384 238.3125 369.6875 224 352 224 C 349.25 224 346.5625 224.3125 344 225 L 287 168 C 287.6875 165.4375 288 162.75 288 160 C 288 142.3125 273.6875 128 256 128 C 253.0625 128 250.1875 128.25 247.5 129 L 219.5 101 Z M 256 64.5 "/>
</g>
</svg>
