<?xml version="1.0" encoding="UTF-8"?>
<svg xmlns="http://www.w3.org/2000/svg" xmlns:xlink="http://www.w3.org/1999/xlink" viewBox="0 0 384 384" width="384px" height="384px">
<g id="surface92414303">
<path style=" stroke:none;fill-rule:nonzero;fill:rgb(44.705883%,70.19608%,68.235296%);fill-opacity:1;" d="M 50 16 C 35.503906 16 24.050781 23.6875 18.625 37 C 16.914062 41.113281 16.046875 45.472656 16.03125 49.96875 C 16.015625 64.863281 25.613281 76.957031 31.375 84.1875 C 32.382812 85.453125 33.289062 86.578125 34.25 87.9375 L 36.84375 91.375 C 39.417969 94.75 42.351562 98.578125 43.28125 100.5 C 43.585938 101.378906 43.988281 102.921875 44.53125 104.875 C 47.042969 113.914062 51.730469 130.714844 59.1875 143.5 C 62.195312 148.652344 66.429688 155.128906 69.46875 159.6875 C 67.4375 169.863281 64 188.609375 64 200 C 64 220 68.148438 236.0625 77.1875 250.75 C 80.53125 255.996094 90.734375 272 108 272 C 114.128906 272 124.308594 269.605469 127.0625 254.40625 C 139.300781 270.199219 160 290 192 304 C 192 304 132.011719 234.007812 121.46875 190.375 C 121.46875 190.375 109.992188 202.007812 100.25 225.75 C 97.339844 218.421875 96 210.160156 96 200 C 96 189.96875 100.414062 167.542969 102.125 159.75 L 103.625 152.96875 L 99.6875 147.25 C 99.625 147.136719 91.5625 135.503906 86.84375 127.40625 C 81.46875 118.191406 77.503906 103.929688 75.375 96.28125 C 74.335938 92.554688 73.519531 89.855469 72.75 88.03125 C 69.949219 81.96875 65.851562 76.640625 62.25 71.9375 L 60.25 69.28125 C 59.242188 67.824219 57.910156 66.136719 56.40625 64.25 C 53.476562 60.570312 48.027344 53.710938 48.1875 49.3125 L 49.96875 48.0625 L 50 48 C 62.71875 48 79.105469 57.03125 85.28125 60.4375 C 87.296875 61.542969 88.777344 62.304688 89.5625 62.65625 L 92.34375 63.875 L 97.8125 64.0625 C 104.964844 64.222656 126.703125 64.730469 142.0625 70.875 C 170.078125 82.074219 185.570312 93.285156 201.3125 113.75 C 238.496094 162.101562 252.214844 224.71875 252.34375 225.34375 L 254.34375 234.375 L 263.09375 237.21875 C 263.398438 237.332031 287.886719 245.515625 310.71875 266.90625 C 282 274.011719 272 288 272 288 C 272 288 279.617188 302.847656 316 326 C 338 340 350 350 368 368 C 368 368 350.011719 327.996094 324.875 296.125 C 344.011719 289.996094 367.53125 286.8125 367.53125 286.8125 L 352.96875 266.625 C 329 233.394531 296.859375 216.621094 281.5625 210.09375 C 276.25 189.835938 260.207031 137.835938 226.6875 94.25 C 207.503906 69.304688 187.089844 54.390625 153.9375 41.125 C 134.304688 33.285156 110.699219 32.351562 100.1875 32.09375 C 90.988281 27.039062 70.542969 16 50 16 Z M 115 80 C 115 80 108 80 100 82 L 122 111.96875 C 128 104 128 94.6875 128 94.6875 C 128 94.6875 124.007812 84 115 80 Z M 115 80 "/>
</g>
</svg>
